PathFileType	4	(X/Y/Z)	c:/Users/goper/Files/vsCode/490R/osim_files/A04/A04_ROM.trc
DataRate	CameraRate	NumFrames	NumMarkers	Units                	OrigDataRate	OrigDataStartFrame	OrigNumFrames
120.00	120.00	9	36	mm	120.0	1168	1556
                Frame#	Time	LPSIS			LASIS			LTH1			LTH2			LTH3			LTH4			LLFE			LMFE			LSH1			LSH2			LSH3			LSH4			LLMAL			LMMAL			LCAL			LMTP5			LTOE			LMTP1			RPSIS			RASIS			RTH1			RTH2			RTH3			RTH4			RLFE			RMFE			RSH1			RSH2			RSH3			RSH4			RLMAL			RMMAL			RCAL			RMTP1			RTOE			RMTP5		
		X1	Y1	Z1	X2	Y2	Z2	X3	Y3	Z3	X4	Y4	Z4	X5	Y5	Z5	X6	Y6	Z6	X7	Y7	Z7	X8	Y8	Z8	X9	Y9	Z9	X10	Y10	Z10	X11	Y11	Z11	X12	Y12	Z12	X13	Y13	Z13	X14	Y14	Z14	X15	Y15	Z15	X16	Y16	Z16	X17	Y17	Z17	X18	Y18	Z18	X19	Y19	Z19	X20	Y20	Z20	X21	Y21	Z21	X22	Y22	Z22	X23	Y23	Z23	X24	Y24	Z24	X25	Y25	Z25	X26	Y26	Z26	X27	Y27	Z27	X28	Y28	Z28	X29	Y29	Z29	X30	Y30	Z30	X31	Y31	Z31	X32	Y32	Z32	X33	Y33	Z33	X34	Y34	Z34	X35	Y35	Z35	X36	Y36	Z36

1168	9.72500	-394.62659	1082.41235	518.47815	-200.68695	965.03058	421.62106	-284.37506	695.02966	364.02277	-273.20950	654.57745	350.53030	-224.80193	708.84851	361.59509	-220.57552	666.29181	347.86572	-231.96642	543.22888	337.68900	-205.18929	512.16437	473.37338	-260.47952	443.16812	315.69348	-251.58987	401.35165	307.59790	-198.60655	446.48712	323.58728	-199.29439	403.79648	315.66953	-253.59895	112.42311	275.31119	-226.21429	109.65865	354.81677	-314.02509	66.38181	331.90967	-119.37232	65.37727	222.72815	-65.29584	77.24284	279.12320	-77.57721	59.84464	324.24982	-391.05304	1074.15601	627.47809	-172.27425	996.49786	703.26965	-229.44029	728.84052	765.40863	-217.46277	688.13269	767.23096	-168.21584	740.56720	767.36603	-163.82782	693.16052	766.98029	-139.19917	554.34131	749.24225	-147.81467	543.62494	631.92981	-212.42961	347.43015	764.47522	-213.81813	299.49582	758.04218	-150.35658	339.93338	760.77252	-161.99132	293.18158	760.42456	-209.72363	104.83089	771.43835	-197.84286	105.68820	635.68976	-286.64041	57.55106	700.72937	-70.81704	56.38351	643.83960	-39.17141	76.78061	688.36017	-70.78838	50.69690	763.79059
1169	9.73333	-395.93231	1082.80054	517.96753	-203.03276	964.74664	419.92484	-285.90274	695.03400	362.87006	-274.62012	654.48383	349.47867	-226.53102	708.79218	360.42767	-221.94708	666.44342	346.75439	-232.83478	543.23010	336.60321	-206.09166	512.44788	472.41953	-261.27802	443.06952	314.82089	-252.33830	401.21097	306.80566	-199.34995	446.49081	322.78598	-199.87758	403.81210	314.90256	-253.67709	112.36890	275.24698	-226.32832	109.72704	354.69717	-314.06006	66.35738	331.85580	-119.38683	65.35696	222.63295	-65.29477	77.34915	279.00314	-77.61917	59.99295	324.14877	-391.84143	1074.28857	626.89441	-172.91669	995.19373	701.57068	-229.21365	728.68213	763.99945	-217.01401	687.99072	765.94659	-167.95688	740.51514	765.77277	-163.47743	693.12604	765.45044	-138.46884	554.35474	747.87823	-147.45093	543.39508	630.76044	-212.10770	347.63156	763.69684	-213.54085	299.64560	757.41101	-150.01396	340.01315	759.92163	-161.66794	293.34338	759.75647	-209.62300	105.00572	771.22211	-197.79395	105.52577	635.49170	-286.60941	57.66049	700.65228	-70.76765	56.25317	643.68860	-39.08346	76.71523	688.17529	-70.69456	50.73038	763.67865
1170	9.74167	-397.22131	1083.18481	517.46399	-205.42365	964.50653	418.21616	-287.20636	694.93774	361.65350	-275.79105	654.43414	348.35400	-227.73495	709.12433	359.24731	-223.19719	666.51434	345.63065	-233.90616	543.12189	336.23822	-206.74091	512.78424	471.47858	-261.96341	442.96475	314.07333	-252.98117	401.10089	306.10489	-199.96721	446.57190	321.91608	-200.49980	403.87732	314.12466	-253.75833	112.31499	275.18350	-226.33707	109.76546	354.56567	-314.06726	66.26756	331.82803	-119.45660	65.33169	222.52869	-65.32461	77.47569	278.87628	-77.54035	60.21251	324.01227	-392.52982	1074.39233	626.31964	-173.55887	993.92804	699.73083	-228.89540	728.40265	762.68860	-216.74832	687.84955	764.58350	-167.71899	740.52844	764.16272	-163.11540	693.06952	763.93494	-137.87918	554.41638	746.47186	-147.06781	543.18024	629.54102	-211.84871	347.77139	762.92755	-213.27438	299.76654	756.71130	-149.79756	340.10193	759.18842	-161.37999	293.52759	759.06000	-209.53993	105.21401	770.96588	-197.76636	105.35640	635.30664	-286.62506	57.75986	700.49792	-70.69944	56.17957	643.52527	-38.99373	76.71731	687.97711	-70.65993	50.77502	763.58417
1171	9.75000	-398.52896	1083.49927	516.96863	-207.71190	964.31757	416.39432	-288.33521	694.79004	360.39352	-276.74420	654.35071	347.03036	-229.02531	709.25031	357.89801	-224.28009	666.56659	344.34323	-234.67110	543.19592	335.19098	-207.50809	513.10516	470.46399	-262.61258	442.92468	313.17880	-253.47600	401.05579	305.34668	-200.61270	446.59851	321.05191	-201.08302	403.90881	313.40082	-253.82053	112.27895	275.12033	-226.35098	109.83073	354.45816	-313.92148	66.10427	331.73911	-119.45148	65.33474	222.43503	-65.30412	77.57329	278.74783	-77.52356	60.34847	323.90338	-393.27237	1074.47815	625.77698	-174.07367	992.69653	697.75897	-228.78845	728.26324	761.28406	-216.43884	687.74628	763.12701	-167.69618	740.40619	762.61011	-162.93886	692.99335	762.41852	-137.29828	554.46576	745.07947	-146.70473	543.03918	628.27161	-211.58350	347.93213	762.14789	-213.04758	299.92435	756.04443	-149.46626	340.22476	758.39264	-161.24348	293.59555	758.41815	-209.41290	105.40643	770.75391	-197.73758	105.17593	635.08057	-286.54523	57.79628	700.38239	-70.63261	56.08915	643.38666	-38.92265	76.67904	687.81470	-70.59332	50.89271	763.43921
1172	9.75833	-399.78998	1083.71082	516.48053	-209.89603	964.10590	414.47009	-289.48004	694.71863	359.14682	-277.83740	654.23615	345.84732	-230.26320	709.23029	356.53394	-225.36322	666.61877	343.06433	-235.40332	543.19556	334.19812	-208.04485	513.38885	469.54550	-262.72427	442.93768	312.39307	-254.11356	400.94656	304.68146	-201.27605	446.56915	320.21640	-201.62486	403.89084	312.66690	-253.89760	112.20740	275.06262	-226.47000	109.77650	354.40051	-314.06494	66.12544	331.75256	-119.54334	65.18232	222.42157	-65.42887	77.50313	278.69940	-77.60682	60.30801	323.87820	-393.88397	1074.41711	625.29541	-174.35497	991.56909	695.81165	-228.78632	727.99194	759.83527	-216.20828	687.48120	761.79999	-167.62544	740.30023	761.01550	-162.82611	692.87372	760.86945	-136.92322	554.32324	743.72223	-146.40854	542.84772	626.97321	-211.39787	347.97446	761.36163	-212.89433	299.92899	755.37213	-149.43686	340.20926	757.62952	-161.09093	293.62802	757.77081	-209.37083	105.47215	770.59052	-197.72716	104.95853	634.85889	-286.51404	57.69187	700.37225	-70.66542	55.82946	643.38086	-38.94194	76.54581	687.73291	-70.61422	50.83723	763.40289
1173	9.76667	-400.94681	1083.98315	515.82916	-212.05344	963.99902	412.54092	-290.56595	694.62543	357.80554	-278.77722	654.16858	344.69379	-231.10963	709.40820	355.13879	-226.33154	666.70258	341.76749	-236.17354	543.20892	333.15646	-208.78255	513.69604	468.58194	-263.74377	442.79196	311.53122	-254.60718	400.81641	303.88095	-201.86374	446.59003	319.43747	-202.27951	403.82108	311.93707	-253.93414	112.15239	274.99945	-226.60458	109.80348	354.31989	-313.95297	66.00448	331.63913	-119.56450	65.10728	222.36491	-65.52927	77.46239	278.63046	-77.71659	60.27556	323.87640	-394.34677	1074.35535	624.76300	-174.65822	990.61560	693.62512	-228.70978	727.73926	758.38361	-216.18896	687.26288	760.36389	-167.62375	740.15411	759.45789	-162.75487	692.74023	759.35364	-136.61082	554.25482	742.31653	-146.28893	542.64685	625.73248	-211.30231	348.04935	760.64490	-212.76263	300.00766	754.77606	-149.31879	340.26965	756.85840	-161.05655	293.65811	757.17487	-209.32898	105.55016	770.40228	-197.70036	104.79141	634.62097	-286.47522	57.62044	700.32996	-70.64890	55.63208	643.33978	-38.93863	76.42007	687.68549	-70.58137	50.88303	763.33594
1174	9.77500	-402.25760	1084.24231	515.20276	-214.13284	963.87421	410.54843	-291.49680	694.49731	356.56830	-279.72260	654.01447	343.49799	-232.34050	709.36597	353.70712	-227.22934	666.69434	340.47849	-236.92964	543.16266	332.10800	-209.50668	513.95154	467.62222	-264.48773	442.64868	310.85275	-255.07382	400.69403	303.17505	-202.42967	446.61029	318.56427	-202.79233	403.80927	311.13974	-254.00484	112.09888	274.94122	-226.70085	109.80070	354.23499	-313.96823	65.91103	331.62018	-119.65591	65.01816	222.31570	-65.55669	77.51633	278.52676	-77.73182	60.33876	323.81812	-394.95813	1074.33813	624.08862	-175.32025	989.51471	691.43915	-228.74173	727.57013	756.82520	-216.31952	687.09406	758.79218	-167.59166	740.07056	757.83350	-162.78603	692.67725	757.79089	-136.46895	554.23511	740.90814	-146.32098	542.46564	624.43402	-211.21304	348.12054	759.79456	-212.78302	300.05029	754.09369	-149.23419	340.35406	756.12817	-161.02383	293.75034	756.48071	-209.32239	105.65862	770.19366	-197.68507	104.58958	634.41650	-286.47656	57.57082	700.26050	-70.66858	55.47572	643.26038	-38.92709	76.37746	687.59631	-70.62251	50.90181	763.29675
1175	9.78333	-403.31244	1084.46375	514.50439	-215.98862	963.86670	408.41653	-292.48550	694.47009	355.35504	-280.76733	653.92358	342.38556	-233.57182	709.20197	352.27930	-228.31284	666.79333	339.18805	-237.48335	543.15472	331.13623	-209.99025	514.28265	466.68835	-264.92126	442.54105	309.96024	-255.70242	400.62543	302.47406	-202.97467	446.61414	317.73511	-203.21637	403.84564	310.40524	-254.06770	112.04234	274.89059	-226.68533	109.79851	354.18448	-314.12164	66.01004	331.68179	-119.70062	65.00787	222.22908	-65.62801	77.57895	278.43695	-77.77341	60.44984	323.73062	-395.54181	1074.51404	623.41656	-175.72530	988.34375	689.28333	-228.84523	727.48651	755.22882	-216.30254	687.02728	757.33051	-167.64714	740.01471	756.18750	-162.85025	692.57263	756.18884	-136.31557	554.26239	739.58771	-146.49016	542.24170	623.11121	-211.28423	348.23755	759.05615	-212.84489	300.17816	753.41016	-149.34969	340.46979	755.32050	-161.04221	293.89050	755.76691	-209.35078	105.83269	769.97424	-197.69022	104.39984	634.21674	-286.51703	57.59551	700.19098	-70.69669	55.39913	643.17200	-38.92673	76.41788	687.48425	-70.57203	50.99798	763.17212
1176	9.79167	-404.33475	1084.70142	513.68805	-217.82191	963.86725	406.30661	-293.55069	694.34723	354.20511	-281.64679	653.81683	341.41354	-234.34219	709.43378	350.98029	-229.34631	666.73242	337.97079	-238.23009	543.17938	330.19006	-210.53191	514.55493	465.68381	-265.54492	442.43185	309.22430	-256.17456	400.55862	301.80444	-203.54300	446.59808	316.93051	-203.77023	403.84900	309.71640	-254.15308	111.97503	274.85205	-226.74857	109.80034	354.10284	-314.00607	65.83817	331.61914	-119.74132	64.95922	222.15314	-65.64200	77.66448	278.32541	-77.74481	60.59645	323.62958	-396.06729	1074.70654	622.54248	-175.96713	987.47906	687.08063	-228.94054	727.42108	753.66583	-216.37990	687.00818	755.81830	-167.66872	739.94592	754.50885	-162.88824	692.54791	754.57721	-136.15240	554.40326	738.19733	-146.68338	542.13037	621.81262	-211.37881	348.37329	758.21002	-212.99126	300.34238	752.72443	-149.30838	340.65988	754.54401	-161.12463	293.98322	755.17651	-209.36371	105.97442	769.75775	-197.70787	104.20947	634.03003	-286.57919	57.62087	700.09271	-70.68868	55.36469	643.06561	-38.93478	76.46146	687.35168	-70.56520	51.08025	763.09369
